<svg xmlns="http://www.w3.org/2000/svg" viewBox="0 0 100 100"><defs><style>.a{fill:none;stroke:#000;stroke-linecap:round;stroke-linejoin:round;stroke-width:5px;}</style></defs><title>Untitled-2</title><path class="a" d="M82,66.58,77,34.93A27.34,27.34,0,0,0,50,11.86h0A27.34,27.34,0,0,0,23,34.93L18,66.58a3.8,3.8,0,0,1-2.68,3c-4.62,1.37-7,5.22-7.87,10.16a4,4,0,0,0,4,4.79H88.59a4,4,0,0,0,4-4.79c-.86-4.94-3.25-8.78-7.87-10.16A3.8,3.8,0,0,1,82,66.58Z"/><path class="a" d="M37.26,84.57a12.74,12.74,0,1,0,25.49,0"/><path class="a" d="M55.48,12.41V8.21A5.48,5.48,0,0,0,50,2.72h0a5.48,5.48,0,0,0-5.48,5.48v4.2"/></svg>