<svg xmlns="http://www.w3.org/2000/svg" viewBox="0 0 100 100"><defs><style>.a{fill:none;stroke:#000;stroke-linecap:round;stroke-linejoin:round;stroke-width:5px;}</style></defs><title>Logo-2 copy</title><path class="a" d="M8,45.53V92.05a4.34,4.34,0,0,0,4.34,4.34H87.76a4.34,4.34,0,0,0,4.34-4.34V45.53"/><polyline class="a" points="40.88 45.53 40.88 95.64 59.24 95.64 59.24 45.53"/><line class="a" x1="66.1" y1="45.53" x2="66.1" y2="20.19"/><line class="a" x1="34.02" y1="20.19" x2="34.02" y2="45.53"/><path class="a" d="M4.84,20.19H95.29a2.16,2.16,0,0,1,2.16,2.16V45.53a0,0,0,0,1,0,0H2.68a0,0,0,0,1,0,0V22.35A2.16,2.16,0,0,1,4.84,20.19Z"/><path class="a" d="M78.7,20.19a10.15,10.15,0,0,0-15-13.61L50.06,20.19,36.46,6.58A10.15,10.15,0,0,0,21.41,20.17"/></svg>