<svg xmlns="http://www.w3.org/2000/svg" viewBox="0 0 100 100"><defs><style>.a{fill:none;stroke:#000;stroke-linecap:round;stroke-linejoin:round;stroke-width:5px;}</style></defs><title>recommend</title><path class="a" d="M25.08,82.85,27.4,84a55.85,55.85,0,0,0,25.25,6H76.85a7.26,7.26,0,0,0,7.39-6.68A7,7,0,0,0,83,79.1a7.84,7.84,0,0,0,6.33-12.44c3.57-.73,4.83-3.9,4.83-7.69a7.8,7.8,0,0,0-1.55-4.67,7.84,7.84,0,0,0,4.5-7.92,8.07,8.07,0,0,0-8.14-7H68.06a2.49,2.49,0,0,1-2.24-2.84c.49-2.1.49-2.1,1.22-4.54l3.13-10.44a15.26,15.26,0,0,0,.64-4.46h0a7.15,7.15,0,0,0-7.15-7.12h0a7.15,7.15,0,0,0-6.92,5.34h0a21.07,21.07,0,0,1-2.28,5.44l-3.69,6.17A50.69,50.69,0,0,1,27.25,47.68"/><polygon class="a" points="5.86 90.07 24.64 90.07 27.5 43.5 3 43.5 5.86 90.07"/></svg>