<svg xmlns="http://www.w3.org/2000/svg" viewBox="0 0 100 100"><defs><style>.a{fill:none;stroke:#000;stroke-linecap:round;stroke-linejoin:round;stroke-width:5px;}</style></defs><title>final-icons</title><circle class="a" cx="50" cy="49.93" r="16"/><path class="a" d="M97.54,49.93h0a7.22,7.22,0,0,0-7-7.21l-4.74-.17A3.56,3.56,0,0,1,82.55,40,33.78,33.78,0,0,0,80,33.92a3.57,3.57,0,0,1,.55-4.11l3.24-3.48a7.22,7.22,0,0,0-.18-10h0a7.22,7.22,0,0,0-10-.18l-3.48,3.24a3.57,3.57,0,0,1-4.11.55,33.78,33.78,0,0,0-6.12-2.54,3.56,3.56,0,0,1-2.51-3.29l-.17-4.74a7.22,7.22,0,0,0-7.21-7h0a7.22,7.22,0,0,0-7.21,7l-.17,4.74a3.56,3.56,0,0,1-2.51,3.29A33.78,33.78,0,0,0,34,19.92a3.57,3.57,0,0,1-4.11-.55L26.4,16.14a7.22,7.22,0,0,0-10,.18h0a7.22,7.22,0,0,0-.18,10l3.24,3.48A3.57,3.57,0,0,1,20,33.92,33.77,33.77,0,0,0,17.45,40a3.56,3.56,0,0,1-3.29,2.51l-4.74.17a7.22,7.22,0,0,0-7,7.21h0a7.22,7.22,0,0,0,7,7.21l4.74.17a3.56,3.56,0,0,1,3.29,2.51A33.76,33.76,0,0,0,20,65.94a3.57,3.57,0,0,1-.55,4.11L16.2,73.53a7.22,7.22,0,0,0,.18,10h0a7.22,7.22,0,0,0,10,.18l3.48-3.24A3.57,3.57,0,0,1,34,79.94a33.76,33.76,0,0,0,6.12,2.54,3.56,3.56,0,0,1,2.51,3.29l.17,4.74a7.22,7.22,0,0,0,7.21,7h0a7.22,7.22,0,0,0,7.21-7l.17-4.74a3.56,3.56,0,0,1,2.51-3.29A33.77,33.77,0,0,0,66,79.94a3.57,3.57,0,0,1,4.11.55l3.48,3.24a7.22,7.22,0,0,0,10-.18h0a7.22,7.22,0,0,0,.18-10l-3.24-3.48A3.57,3.57,0,0,1,80,65.94a33.77,33.77,0,0,0,2.54-6.12,3.56,3.56,0,0,1,3.29-2.51l4.74-.17A7.22,7.22,0,0,0,97.54,49.93Z"/></svg>