<svg xmlns="http://www.w3.org/2000/svg" viewBox="0 0 100 100"><defs><style>.a{fill:none;stroke:#000;stroke-linecap:round;stroke-linejoin:round;stroke-width:5px;}</style></defs><title>final-icons</title><path class="a" d="M22.24,15.71c-14,0-16.46,4.46-16.46,11.34,0,12.61,7.37,21.59,16.46,21.59"/><path class="a" d="M78.18,15.71c14,0,16.46,4.46,16.46,11.34,0,12.61-7.37,21.59-16.46,21.59"/><path class="a" d="M70.54,62.62a19.45,19.45,0,0,0,7.64-15.54V8.26a72.77,72.77,0,0,0-55.94,0V47.07a19.62,19.62,0,0,0,8,15.84h0A33.56,33.56,0,0,0,43.7,68.76V79a6.65,6.65,0,0,1-6.65,6.65h0A11.72,11.72,0,0,0,25.33,97.42H75.08A11.72,11.72,0,0,0,63.36,85.7h0A6.65,6.65,0,0,1,56.71,79V68.76A33.53,33.53,0,0,0,70.54,62.62Z"/></svg>