<svg xmlns="http://www.w3.org/2000/svg" viewBox="0 0 100 100"><defs><style>.a{fill:none;stroke:#000;stroke-linecap:round;stroke-linejoin:round;stroke-width:5px;}</style></defs><title>user</title><circle class="a" cx="50" cy="50" r="47.48"/><path class="a" d="M80.41,86.45,80,81.38C79,70.87,73.19,62.32,62.76,60.66h0a4.85,4.85,0,0,1-4.09-4.79h0c0-2.55,1.46-4.65,3.27-6.45,2.17-2.16,5.15-9.1,4.29-15.38a16.36,16.36,0,0,0-32.55,2.29c0,5.3,2.09,10.57,4.34,13,1.77,1.9,3.38,3.94,3.38,6.53h0a4.85,4.85,0,0,1-4.09,4.79h0C26.82,62.32,21,70.88,20,81.41l-.44,5.05"/></svg>